<svg width="426" height="34" viewBox="0 0 426 34" fill="none" xmlns="http://www.w3.org/2000/svg">
<mask id="mask0_2804_233" style="mask-type:alpha" maskUnits="userSpaceOnUse" x="0" y="0" width="33" height="34">
<rect y="0.624924" width="32.7502" height="32.7502" fill="#D9D9D9"/>
</mask>
<g mask="url(#mask0_2804_233)">
<path d="M16.3751 23.8222C18.2628 23.8222 19.8719 23.157 21.2024 21.8265C22.5329 20.496 23.1981 18.8869 23.1981 16.9993C23.1981 15.1116 22.5329 13.5025 21.2024 12.172C19.8719 10.8416 18.2628 10.1763 16.3751 10.1763C14.4875 10.1763 12.8784 10.8416 11.5479 12.172C10.2174 13.5025 9.5522 15.1116 9.5522 16.9993C9.5522 18.8869 10.2174 20.496 11.5479 21.8265C12.8784 23.157 14.4875 23.8222 16.3751 23.8222ZM16.3751 30.6452C14.4875 30.6452 12.7135 30.287 11.0532 29.5705C9.393 28.8541 7.9488 27.8819 6.72067 26.6537C5.49254 25.4256 4.52027 23.9814 3.80386 22.3212C3.08745 20.6609 2.72925 18.8869 2.72925 16.9993C2.72925 15.1116 3.08745 13.3376 3.80386 11.6774C4.52027 10.0171 5.49254 8.57292 6.72067 7.34479C7.9488 6.11666 9.393 5.14439 11.0532 4.42798C12.7135 3.71157 14.4875 3.35336 16.3751 3.35336C18.2628 3.35336 20.0368 3.71157 21.697 4.42798C23.3573 5.14439 24.8015 6.11666 26.0296 7.34479C27.2578 8.57292 28.23 10.0171 28.9464 11.6774C29.6628 13.3376 30.021 15.1116 30.021 16.9993C30.021 18.8869 29.6628 20.6609 28.9464 22.3212C28.23 23.9814 27.2578 25.4256 26.0296 26.6537C24.8015 27.8819 23.3573 28.8541 21.697 29.5705C20.0368 30.287 18.2628 30.6452 16.3751 30.6452ZM16.3751 27.916C19.4227 27.916 22.0041 26.8584 24.1192 24.7433C26.2343 22.6282 27.2919 20.0468 27.2919 16.9993C27.2919 13.9517 26.2343 11.3703 24.1192 9.25522C22.0041 7.1401 19.4227 6.08254 16.3751 6.08254C13.3276 6.08254 10.7462 7.1401 8.6311 9.25522C6.51599 11.3703 5.45843 13.9517 5.45843 16.9993C5.45843 20.0468 6.51599 22.6282 8.6311 24.7433C10.7462 26.8584 13.3276 27.916 16.3751 27.916Z" fill="#1C1B1F"/>
</g>
<circle cx="16.5911" cy="17.2174" r="7.18948" fill="#FF5733"/>
<rect width="377" height="32" transform="translate(48.7502 0.624924)" fill="#FFB9A9"/>
<path d="M64.4377 18.664H61.0276V25.6249H58.8713V8.56242H63.8752C64.6721 8.57805 65.4221 8.69133 66.1252 8.90227C66.8284 9.1132 67.4456 9.42961 67.9768 9.85149C68.5002 10.2734 68.9104 10.8046 69.2073 11.4452C69.512 12.078 69.6643 12.8241 69.6643 13.6835C69.6643 14.2382 69.5823 14.746 69.4182 15.207C69.262 15.6679 69.0432 16.0859 68.762 16.4609C68.4807 16.8359 68.1448 17.1679 67.7542 17.457C67.3635 17.746 66.9338 17.9921 66.4651 18.1952L70.0862 25.4843L70.0745 25.6249H67.7893L64.4377 18.664ZM61.0276 16.8827H63.9338C64.4182 16.8749 64.8752 16.8007 65.3049 16.6601C65.7346 16.5116 66.1135 16.3007 66.4417 16.0273C66.762 15.7538 67.0159 15.4218 67.2034 15.0312C67.3909 14.6327 67.4846 14.1757 67.4846 13.6601C67.4846 13.1132 67.3948 12.6366 67.2151 12.2304C67.0354 11.8163 66.7854 11.4687 66.4651 11.1874C66.1448 10.914 65.762 10.707 65.3167 10.5663C64.8792 10.4257 64.3987 10.3515 63.8752 10.3437H61.0276V16.8827ZM81.5354 25.6249C81.4495 25.4609 81.3792 25.2577 81.3245 25.0155C81.2776 24.7655 81.2424 24.5077 81.219 24.2421C81.0002 24.4609 80.7542 24.6679 80.4807 24.8632C80.2151 25.0585 79.9221 25.2304 79.6018 25.3788C79.2737 25.5273 78.926 25.6445 78.5588 25.7304C78.1917 25.8163 77.801 25.8593 77.387 25.8593C76.7151 25.8593 76.1057 25.7616 75.5588 25.5663C75.0198 25.371 74.5627 25.1054 74.1877 24.7695C73.8049 24.4413 73.5081 24.0507 73.2971 23.5976C73.094 23.1366 72.9924 22.6405 72.9924 22.1093C72.9924 21.414 73.1292 20.8046 73.4026 20.2812C73.6838 19.7577 74.0784 19.3202 74.5862 18.9687C75.094 18.6249 75.7034 18.3671 76.4143 18.1952C77.1331 18.0234 77.9338 17.9374 78.8167 17.9374H81.1838V16.9413C81.1838 16.5585 81.1135 16.2148 80.9729 15.9101C80.8323 15.6054 80.6331 15.3437 80.3752 15.1249C80.1174 14.914 79.801 14.7499 79.426 14.6327C79.0588 14.5155 78.6448 14.457 78.1838 14.457C77.7542 14.457 77.3674 14.5116 77.0237 14.621C76.6877 14.7304 76.4026 14.8749 76.1682 15.0546C75.9338 15.2343 75.7502 15.4491 75.6174 15.6991C75.4924 15.9413 75.4299 16.1952 75.4299 16.4609H73.2502C73.2581 15.9999 73.3752 15.5468 73.6018 15.1015C73.8362 14.6562 74.1721 14.2538 74.6096 13.8945C75.0393 13.5429 75.5627 13.2577 76.1799 13.039C76.8049 12.8202 77.512 12.7109 78.301 12.7109C79.0198 12.7109 79.6877 12.8007 80.3049 12.9804C80.9221 13.1523 81.4573 13.414 81.9104 13.7655C82.3557 14.1249 82.7073 14.5702 82.9651 15.1015C83.2229 15.6327 83.3518 16.2538 83.3518 16.9648V22.8593C83.3518 23.2812 83.3909 23.7304 83.469 24.207C83.5471 24.6757 83.6565 25.0859 83.7971 25.4374V25.6249H81.5354ZM77.7034 23.9726C78.1252 23.9726 78.5198 23.9179 78.887 23.8085C79.2542 23.6991 79.5901 23.5546 79.8948 23.3749C80.1917 23.1952 80.4495 22.9921 80.6682 22.7655C80.887 22.5312 81.0588 22.289 81.1838 22.039V19.4726H79.1682C78.4182 19.4726 77.762 19.539 77.1995 19.6718C76.6448 19.7968 76.2034 19.9921 75.8752 20.2577C75.6409 20.4452 75.4612 20.6679 75.3362 20.9257C75.219 21.1835 75.1604 21.4765 75.1604 21.8046C75.1604 22.1171 75.2112 22.4062 75.3127 22.6718C75.4221 22.9374 75.5823 23.164 75.7932 23.3515C76.0042 23.5468 76.2698 23.6991 76.5901 23.8085C76.9104 23.9179 77.2815 23.9726 77.7034 23.9726ZM87.2073 19.1796C87.2073 18.2343 87.3245 17.3671 87.5588 16.578C87.801 15.7812 88.1448 15.0976 88.5901 14.5273C89.0276 13.957 89.5588 13.5116 90.1838 13.1913C90.8088 12.871 91.5081 12.7109 92.2815 12.7109C93.0393 12.7109 93.6995 12.8398 94.262 13.0976C94.8323 13.3476 95.3245 13.7148 95.7385 14.1991V7.62492H97.9065V25.6249H95.9143L95.8206 24.289C95.3987 24.8046 94.8948 25.1952 94.3088 25.4609C93.7229 25.7265 93.0393 25.8593 92.2581 25.8593C91.4924 25.8593 90.7971 25.6952 90.1721 25.3671C89.5549 25.039 89.0276 24.5859 88.5901 24.0077C88.1526 23.4296 87.8127 22.7499 87.5706 21.9687C87.3284 21.1796 87.2073 20.332 87.2073 19.4257V19.1796ZM89.3752 19.4257C89.3752 20.0429 89.4417 20.6288 89.5745 21.1835C89.7073 21.7382 89.9143 22.2265 90.1956 22.6484C90.469 23.0702 90.8206 23.4062 91.2502 23.6562C91.6799 23.8984 92.1956 24.0195 92.7971 24.0195C93.5237 24.0195 94.1252 23.8554 94.6018 23.5273C95.0784 23.1991 95.4573 22.7577 95.7385 22.203V16.3202C95.4573 15.8046 95.0784 15.3827 94.6018 15.0546C94.1252 14.7187 93.5315 14.5507 92.8206 14.5507C92.2112 14.5507 91.6877 14.6757 91.2502 14.9257C90.8206 15.1757 90.469 15.5116 90.1956 15.9335C89.9143 16.3632 89.7073 16.8593 89.5745 17.4218C89.4417 17.9765 89.3752 18.5624 89.3752 19.1796V19.4257ZM102.371 12.9452H108.852V23.7499H112.989V25.6249H102.371V23.7499H106.684V14.832H102.371V12.9452ZM106.403 9.61711C106.403 9.42961 106.43 9.25383 106.485 9.08977C106.547 8.9257 106.641 8.78508 106.766 8.66789C106.867 8.56633 106.996 8.4882 107.153 8.43352C107.317 8.37102 107.5 8.33977 107.703 8.33977C107.906 8.33977 108.086 8.37102 108.242 8.43352C108.399 8.4882 108.528 8.56633 108.629 8.66789C108.754 8.77727 108.848 8.91399 108.91 9.07805C108.973 9.24211 109.004 9.4218 109.004 9.61711C109.004 9.96867 108.895 10.2616 108.676 10.496C108.457 10.7304 108.133 10.8476 107.703 10.8476C107.266 10.8476 106.938 10.7304 106.719 10.496C106.508 10.2616 106.403 9.96867 106.403 9.61711ZM115.836 19.1679C115.836 18.2538 115.969 17.4062 116.235 16.6249C116.5 15.8359 116.883 15.1523 117.383 14.5741C117.875 13.996 118.477 13.5429 119.188 13.2148C119.899 12.8788 120.699 12.7109 121.59 12.7109C122.489 12.7109 123.293 12.8788 124.004 13.2148C124.723 13.5429 125.332 13.996 125.832 14.5741C126.324 15.1523 126.703 15.8359 126.969 16.6249C127.235 17.4062 127.367 18.2538 127.367 19.1679V19.4257C127.367 20.3398 127.235 21.1874 126.969 21.9687C126.703 22.7499 126.324 23.4296 125.832 24.0077C125.332 24.5859 124.727 25.039 124.016 25.3671C123.305 25.6952 122.504 25.8593 121.614 25.8593C120.715 25.8593 119.906 25.6952 119.188 25.3671C118.477 25.039 117.875 24.5859 117.383 24.0077C116.883 23.4296 116.5 22.7499 116.235 21.9687C115.969 21.1874 115.836 20.3398 115.836 19.4257V19.1679ZM118.004 19.4257C118.004 20.0507 118.078 20.6484 118.227 21.2187C118.375 21.7812 118.602 22.2773 118.906 22.707C119.203 23.1366 119.578 23.4765 120.031 23.7265C120.485 23.9765 121.012 24.1015 121.614 24.1015C122.207 24.1015 122.727 23.9765 123.172 23.7265C123.625 23.4765 124.004 23.1366 124.309 22.707C124.606 22.2773 124.828 21.7812 124.977 21.2187C125.125 20.6484 125.199 20.0507 125.199 19.4257V19.1679C125.199 18.5507 125.121 17.9609 124.965 17.3984C124.817 16.828 124.594 16.328 124.297 15.8984C123.992 15.4687 123.614 15.1288 123.16 14.8788C122.715 14.621 122.192 14.4921 121.59 14.4921C120.989 14.4921 120.465 14.621 120.02 14.8788C119.574 15.1288 119.203 15.4687 118.906 15.8984C118.602 16.328 118.375 16.828 118.227 17.3984C118.078 17.9609 118.004 18.5507 118.004 19.1679V19.4257ZM130.637 25.6249V8.56242H134.586C135.25 8.57024 135.875 8.64055 136.461 8.77336C137.055 8.89836 137.602 9.07805 138.102 9.31242C138.797 9.63274 139.41 10.0546 139.942 10.578C140.481 11.0937 140.91 11.6913 141.231 12.371C141.52 12.9491 141.739 13.582 141.887 14.2695C142.043 14.957 142.125 15.6913 142.133 16.4726V17.7265C142.133 18.4765 142.059 19.1874 141.91 19.8593C141.77 20.5312 141.563 21.1484 141.289 21.7109C141.008 22.2968 140.653 22.828 140.223 23.3046C139.793 23.7812 139.313 24.1874 138.781 24.5234C138.219 24.8749 137.582 25.1445 136.871 25.332C136.168 25.5195 135.406 25.6171 134.586 25.6249H130.637ZM132.84 10.3437V23.8554H134.586C135.211 23.8476 135.778 23.7695 136.285 23.621C136.801 23.4726 137.258 23.2616 137.656 22.9882C138.078 22.707 138.442 22.3632 138.746 21.957C139.059 21.5429 139.305 21.082 139.485 20.5741C139.641 20.1601 139.758 19.7148 139.836 19.2382C139.914 18.7538 139.957 18.2499 139.965 17.7265V16.4491C139.957 15.9179 139.91 15.4101 139.824 14.9257C139.746 14.4335 139.625 13.9765 139.461 13.5546C139.25 13.0077 138.965 12.5155 138.606 12.078C138.254 11.6327 137.821 11.2734 137.305 10.9999C136.938 10.7968 136.528 10.6405 136.074 10.5312C135.621 10.414 135.125 10.3515 134.586 10.3437H132.84ZM144.664 19.1679C144.664 18.2538 144.797 17.4062 145.063 16.6249C145.328 15.8359 145.711 15.1523 146.211 14.5741C146.703 13.996 147.305 13.5429 148.016 13.2148C148.727 12.8788 149.528 12.7109 150.418 12.7109C151.317 12.7109 152.121 12.8788 152.832 13.2148C153.551 13.5429 154.16 13.996 154.66 14.5741C155.153 15.1523 155.531 15.8359 155.797 16.6249C156.063 17.4062 156.196 18.2538 156.196 19.1679V19.4257C156.196 20.3398 156.063 21.1874 155.797 21.9687C155.531 22.7499 155.153 23.4296 154.66 24.0077C154.16 24.5859 153.555 25.039 152.844 25.3671C152.133 25.6952 151.332 25.8593 150.442 25.8593C149.543 25.8593 148.735 25.6952 148.016 25.3671C147.305 25.039 146.703 24.5859 146.211 24.0077C145.711 23.4296 145.328 22.7499 145.063 21.9687C144.797 21.1874 144.664 20.3398 144.664 19.4257V19.1679ZM146.832 19.4257C146.832 20.0507 146.906 20.6484 147.055 21.2187C147.203 21.7812 147.43 22.2773 147.735 22.707C148.031 23.1366 148.406 23.4765 148.86 23.7265C149.313 23.9765 149.84 24.1015 150.442 24.1015C151.035 24.1015 151.555 23.9765 152 23.7265C152.453 23.4765 152.832 23.1366 153.137 22.707C153.434 22.2773 153.656 21.7812 153.805 21.2187C153.953 20.6484 154.028 20.0507 154.028 19.4257V19.1679C154.028 18.5507 153.949 17.9609 153.793 17.3984C153.645 16.828 153.422 16.328 153.125 15.8984C152.821 15.4687 152.442 15.1288 151.989 14.8788C151.543 14.621 151.02 14.4921 150.418 14.4921C149.817 14.4921 149.293 14.621 148.848 14.8788C148.403 15.1288 148.031 15.4687 147.735 15.8984C147.43 16.328 147.203 16.828 147.055 17.3984C146.906 17.9609 146.832 18.5507 146.832 19.1679V19.4257ZM164.821 9.87492V12.9452H169.649V14.621H164.821V21.5116C164.821 22.0038 164.883 22.4101 165.008 22.7304C165.133 23.0507 165.305 23.3046 165.524 23.4921C165.742 23.6874 165.992 23.8241 166.274 23.9023C166.563 23.9804 166.867 24.0195 167.188 24.0195C167.422 24.0195 167.664 24.0077 167.914 23.9843C168.164 23.953 168.41 23.9179 168.653 23.8788C168.887 23.8398 169.106 23.8007 169.309 23.7616C169.52 23.7148 169.692 23.6757 169.824 23.6445L170.129 25.1796C169.949 25.289 169.731 25.3866 169.473 25.4726C169.215 25.5507 168.934 25.6171 168.629 25.6718C168.324 25.7343 168 25.7812 167.656 25.8124C167.321 25.8437 166.985 25.8593 166.649 25.8593C166.086 25.8593 165.559 25.7812 165.067 25.6249C164.582 25.4609 164.16 25.203 163.801 24.8515C163.442 24.5077 163.156 24.0624 162.946 23.5155C162.742 22.9609 162.641 22.2929 162.641 21.5116V14.621H159.313V12.9452H162.641V9.87492H164.821ZM188.293 25.6249V8.56242H192.242C192.906 8.57024 193.531 8.64055 194.117 8.77336C194.711 8.89836 195.258 9.07805 195.758 9.31242C196.453 9.63274 197.067 10.0546 197.598 10.578C198.137 11.0937 198.567 11.6913 198.887 12.371C199.176 12.9491 199.395 13.582 199.543 14.2695C199.699 14.957 199.781 15.6913 199.789 16.4726V17.7265C199.789 18.4765 199.715 19.1874 199.567 19.8593C199.426 20.5312 199.219 21.1484 198.946 21.7109C198.664 22.2968 198.309 22.828 197.879 23.3046C197.449 23.7812 196.969 24.1874 196.438 24.5234C195.875 24.8749 195.239 25.1445 194.528 25.332C193.824 25.5195 193.063 25.6171 192.242 25.6249H188.293ZM190.496 10.3437V23.8554H192.242C192.867 23.8476 193.434 23.7695 193.942 23.621C194.457 23.4726 194.914 23.2616 195.313 22.9882C195.735 22.707 196.098 22.3632 196.403 21.957C196.715 21.5429 196.961 21.082 197.141 20.5741C197.297 20.1601 197.414 19.7148 197.492 19.2382C197.571 18.7538 197.614 18.2499 197.621 17.7265V16.4491C197.614 15.9179 197.567 15.4101 197.481 14.9257C197.403 14.4335 197.281 13.9765 197.117 13.5546C196.906 13.0077 196.621 12.5155 196.262 12.078C195.91 11.6327 195.477 11.2734 194.961 10.9999C194.594 10.7968 194.184 10.6405 193.731 10.5312C193.278 10.414 192.781 10.3515 192.242 10.3437H190.496ZM208.531 25.8593C207.641 25.8593 206.821 25.707 206.071 25.4023C205.328 25.0976 204.692 24.6718 204.16 24.1249C203.629 23.578 203.215 22.9296 202.918 22.1796C202.621 21.4296 202.473 20.6132 202.473 19.7304V19.2382C202.473 18.2148 202.637 17.3007 202.965 16.496C203.293 15.6835 203.731 14.996 204.278 14.4335C204.817 13.8788 205.43 13.453 206.117 13.1562C206.813 12.8593 207.524 12.7109 208.25 12.7109C209.164 12.7109 209.961 12.871 210.641 13.1913C211.328 13.5038 211.899 13.9374 212.352 14.4921C212.805 15.0546 213.141 15.7148 213.36 16.4726C213.586 17.2304 213.699 18.0507 213.699 18.9335V19.9062H204.641V19.9882C204.696 20.6054 204.817 21.1484 205.004 21.6171C205.199 22.0859 205.465 22.4999 205.801 22.8593C206.145 23.2421 206.559 23.5429 207.043 23.7616C207.528 23.9804 208.063 24.0898 208.649 24.0898C209.422 24.0898 210.11 23.9335 210.711 23.621C211.313 23.3085 211.813 22.8945 212.211 22.3788L213.535 23.4101C213.114 24.0507 212.481 24.621 211.637 25.121C210.801 25.6132 209.766 25.8593 208.531 25.8593ZM208.25 14.4921C207.813 14.4921 207.399 14.5741 207.008 14.7382C206.617 14.8945 206.266 15.1249 205.953 15.4296C205.641 15.7421 205.375 16.1249 205.156 16.578C204.946 17.0234 204.797 17.539 204.711 18.1249H211.531V18.0195C211.531 17.6288 211.457 17.2109 211.309 16.7655C211.16 16.3124 210.953 15.9218 210.688 15.5937C210.422 15.2655 210.086 14.9999 209.68 14.7968C209.281 14.5937 208.805 14.4921 208.25 14.4921ZM225.77 22.2616C225.77 22.0038 225.719 21.7734 225.617 21.5702C225.516 21.3593 225.344 21.1679 225.102 20.996C224.86 20.8241 224.539 20.6679 224.141 20.5273C223.742 20.3788 223.246 20.246 222.653 20.1288C221.926 19.9804 221.262 19.8007 220.66 19.5898C220.067 19.3788 219.559 19.1249 219.137 18.828C218.707 18.539 218.375 18.1991 218.141 17.8085C217.906 17.4101 217.789 16.9491 217.789 16.4257C217.789 15.9101 217.91 15.4296 218.153 14.9843C218.395 14.5312 218.735 14.1366 219.172 13.8007C219.61 13.4648 220.129 13.1991 220.731 13.0038C221.34 12.8085 222.008 12.7109 222.735 12.7109C223.516 12.7109 224.219 12.8124 224.844 13.0155C225.469 13.2187 226 13.4999 226.438 13.8593C226.875 14.2187 227.211 14.6405 227.446 15.1249C227.688 15.6015 227.809 16.1171 227.809 16.6718H225.641C225.641 16.3984 225.571 16.1327 225.43 15.8749C225.289 15.6093 225.094 15.3749 224.844 15.1718C224.594 14.9687 224.289 14.8046 223.93 14.6796C223.578 14.5546 223.18 14.4921 222.735 14.4921C222.274 14.4921 221.867 14.5429 221.516 14.6445C221.172 14.746 220.887 14.8827 220.66 15.0546C220.426 15.2265 220.25 15.4257 220.133 15.6523C220.016 15.8788 219.957 16.1132 219.957 16.3554C219.957 16.6054 220.004 16.828 220.098 17.0234C220.192 17.2187 220.356 17.3945 220.59 17.5507C220.817 17.707 221.121 17.8476 221.504 17.9726C221.895 18.0976 222.387 18.2187 222.981 18.3359C223.762 18.4999 224.461 18.6913 225.078 18.9101C225.696 19.121 226.215 19.3749 226.637 19.6718C227.059 19.9765 227.379 20.328 227.598 20.7265C227.824 21.1249 227.938 21.5859 227.938 22.1093C227.938 22.6718 227.809 23.1835 227.551 23.6445C227.301 24.1054 226.949 24.4999 226.496 24.828C226.043 25.1562 225.5 25.4101 224.867 25.5898C224.235 25.7695 223.543 25.8593 222.793 25.8593C221.934 25.8593 221.168 25.746 220.496 25.5195C219.824 25.2851 219.258 24.9765 218.797 24.5937C218.328 24.2187 217.969 23.7812 217.719 23.2812C217.477 22.7812 217.356 22.2616 217.356 21.7226H219.524C219.555 22.1679 219.672 22.5429 219.875 22.8476C220.086 23.1523 220.348 23.3984 220.66 23.5859C220.965 23.7734 221.305 23.9062 221.68 23.9843C222.055 24.0624 222.426 24.1015 222.793 24.1015C223.371 24.1015 223.875 24.0351 224.305 23.9023C224.735 23.7616 225.071 23.5702 225.313 23.328C225.461 23.1796 225.574 23.0155 225.653 22.8359C225.731 22.6562 225.77 22.4648 225.77 22.2616ZM232.098 12.9452H238.578V23.7499H242.715V25.6249H232.098V23.7499H236.41V14.832H232.098V12.9452ZM236.129 9.61711C236.129 9.42961 236.156 9.25383 236.211 9.08977C236.274 8.9257 236.367 8.78508 236.492 8.66789C236.594 8.56633 236.723 8.4882 236.879 8.43352C237.043 8.37102 237.227 8.33977 237.43 8.33977C237.633 8.33977 237.813 8.37102 237.969 8.43352C238.125 8.4882 238.254 8.56633 238.356 8.66789C238.481 8.77727 238.574 8.91399 238.637 9.07805C238.699 9.24211 238.731 9.4218 238.731 9.61711C238.731 9.96867 238.621 10.2616 238.403 10.496C238.184 10.7304 237.86 10.8476 237.43 10.8476C236.992 10.8476 236.664 10.7304 236.446 10.496C236.235 10.2616 236.129 9.96867 236.129 9.61711ZM245.774 19.1796C245.774 18.2343 245.887 17.3671 246.114 16.578C246.348 15.7812 246.684 15.0976 247.121 14.5273C247.559 13.957 248.09 13.5116 248.715 13.1913C249.34 12.871 250.047 12.7109 250.836 12.7109C251.344 12.7109 251.809 12.7695 252.231 12.8866C252.66 13.0038 253.047 13.1757 253.391 13.4023C253.578 13.5195 253.754 13.6562 253.918 13.8124C254.09 13.9687 254.25 14.1405 254.399 14.328L254.504 12.9452H256.473V25.3554C256.473 26.1913 256.34 26.9335 256.074 27.582C255.817 28.2304 255.453 28.7812 254.985 29.2343C254.508 29.6874 253.942 30.0312 253.285 30.2655C252.629 30.4999 251.903 30.6171 251.106 30.6171C250.778 30.6171 250.403 30.578 249.981 30.4999C249.559 30.4296 249.133 30.3085 248.703 30.1366C248.266 29.9726 247.844 29.7499 247.438 29.4687C247.039 29.1874 246.696 28.8398 246.406 28.4257L247.531 27.1249C247.797 27.4452 248.071 27.7148 248.352 27.9335C248.633 28.1601 248.918 28.3398 249.207 28.4726C249.496 28.6054 249.785 28.6991 250.074 28.7538C250.364 28.8163 250.653 28.8476 250.942 28.8476C251.457 28.8476 251.922 28.7734 252.336 28.6249C252.75 28.4765 253.106 28.2577 253.403 27.9687C253.692 27.6874 253.914 27.3359 254.071 26.914C254.227 26.4921 254.305 26.0077 254.305 25.4609V24.371C254.141 24.5585 253.965 24.7304 253.778 24.8866C253.598 25.0429 253.403 25.1796 253.192 25.2968C252.864 25.4765 252.5 25.6132 252.102 25.707C251.703 25.8085 251.274 25.8593 250.813 25.8593C250.039 25.8593 249.34 25.6952 248.715 25.3671C248.09 25.039 247.563 24.5859 247.133 24.0077C246.696 23.4296 246.36 22.7499 246.125 21.9687C245.891 21.1796 245.774 20.332 245.774 19.4257V19.1796ZM247.942 19.4257C247.942 20.0429 248.004 20.6288 248.129 21.1835C248.262 21.7382 248.469 22.2265 248.75 22.6484C249.024 23.0702 249.375 23.4062 249.805 23.6562C250.235 23.8984 250.75 24.0195 251.352 24.0195C251.727 24.0195 252.063 23.9765 252.36 23.8905C252.664 23.7968 252.938 23.6679 253.18 23.5038C253.414 23.3398 253.625 23.1445 253.813 22.9179C254 22.6913 254.164 22.4413 254.305 22.1679V16.3554C254.164 16.0898 254 15.8476 253.813 15.6288C253.625 15.4101 253.41 15.2187 253.168 15.0546C252.926 14.8984 252.656 14.7773 252.36 14.6913C252.063 14.5976 251.735 14.5507 251.375 14.5507C250.766 14.5507 250.242 14.6757 249.805 14.9257C249.375 15.1757 249.024 15.5116 248.75 15.9335C248.469 16.3632 248.262 16.8593 248.129 17.4218C248.004 17.9765 247.942 18.5624 247.942 19.1796V19.4257ZM260.586 25.6249V12.9452H262.531L262.684 14.8202C262.871 14.5546 263.074 14.3124 263.293 14.0937C263.52 13.8671 263.758 13.6718 264.008 13.5077C264.383 13.2577 264.789 13.0663 265.227 12.9335C265.672 12.7929 266.141 12.7187 266.633 12.7109C267.297 12.7109 267.899 12.8046 268.438 12.9921C268.985 13.1796 269.449 13.4726 269.832 13.871C270.215 14.2695 270.508 14.7773 270.711 15.3945C270.922 16.0038 271.028 16.7304 271.028 17.5741V25.6249H268.86V17.621C268.86 17.0585 268.797 16.582 268.672 16.1913C268.547 15.8007 268.364 15.4843 268.121 15.2421C267.871 14.9999 267.567 14.8241 267.207 14.7148C266.856 14.6054 266.449 14.5507 265.989 14.5507C265.59 14.5507 265.219 14.6093 264.875 14.7265C264.531 14.8359 264.215 14.9882 263.926 15.1835C263.692 15.3554 263.473 15.5546 263.27 15.7812C263.074 16.0077 262.903 16.2577 262.754 16.5312V25.6249H260.586ZM298.344 21.3124C298.344 20.789 298.223 20.3476 297.981 19.9882C297.746 19.6288 297.442 19.3241 297.067 19.0741C296.692 18.832 296.278 18.6288 295.824 18.4648C295.379 18.3007 294.949 18.1523 294.535 18.0195C293.934 17.8241 293.321 17.5898 292.696 17.3163C292.078 17.0351 291.516 16.6991 291.008 16.3085C290.492 15.9101 290.071 15.4413 289.742 14.9023C289.422 14.3554 289.262 13.7148 289.262 12.9804C289.262 12.246 289.422 11.5898 289.742 11.0116C290.071 10.4335 290.496 9.94524 291.02 9.5468C291.543 9.14836 292.137 8.84758 292.801 8.64445C293.465 8.43352 294.133 8.32805 294.805 8.32805C295.547 8.32805 296.262 8.45305 296.949 8.70305C297.637 8.94524 298.246 9.28899 298.778 9.7343C299.309 10.1796 299.735 10.7187 300.055 11.3515C300.375 11.9843 300.543 12.6913 300.559 13.4726H298.332C298.27 12.9804 298.149 12.5351 297.969 12.1366C297.789 11.7304 297.551 11.3827 297.254 11.0937C296.957 10.8046 296.602 10.582 296.188 10.4257C295.781 10.2616 295.321 10.1796 294.805 10.1796C294.391 10.1796 293.985 10.2382 293.586 10.3554C293.196 10.4726 292.848 10.6484 292.543 10.8827C292.231 11.1171 291.981 11.4062 291.793 11.7499C291.614 12.0937 291.524 12.4921 291.524 12.9452C291.531 13.4374 291.656 13.8554 291.899 14.1991C292.141 14.5351 292.449 14.8202 292.824 15.0546C293.192 15.289 293.59 15.4843 294.02 15.6405C294.457 15.7968 294.867 15.9335 295.25 16.0507C295.883 16.246 296.516 16.4843 297.149 16.7655C297.781 17.039 298.36 17.3905 298.883 17.8202C299.399 18.2187 299.813 18.707 300.125 19.2851C300.446 19.8632 300.606 20.5312 300.606 21.289C300.606 22.0546 300.434 22.7226 300.09 23.2929C299.754 23.8632 299.317 24.3359 298.778 24.7109C298.239 25.0937 297.629 25.3827 296.949 25.578C296.27 25.7655 295.59 25.8593 294.91 25.8593C294.098 25.8593 293.297 25.7226 292.508 25.4491C291.727 25.1757 291.047 24.7812 290.469 24.2655C289.953 23.8202 289.543 23.3007 289.239 22.707C288.942 22.1054 288.781 21.4374 288.758 20.703H290.973C291.043 21.2343 291.188 21.707 291.406 22.121C291.625 22.5273 291.906 22.871 292.25 23.1523C292.594 23.4413 292.989 23.6601 293.434 23.8085C293.887 23.9491 294.379 24.0195 294.91 24.0195C295.332 24.0195 295.746 23.9687 296.153 23.8671C296.567 23.7577 296.934 23.5898 297.254 23.3632C297.574 23.1445 297.836 22.8671 298.039 22.5312C298.242 22.1874 298.344 21.7812 298.344 21.3124ZM303.219 19.1679C303.219 18.2538 303.352 17.4062 303.617 16.6249C303.883 15.8359 304.266 15.1523 304.766 14.5741C305.258 13.996 305.86 13.5429 306.571 13.2148C307.281 12.8788 308.082 12.7109 308.973 12.7109C309.871 12.7109 310.676 12.8788 311.387 13.2148C312.106 13.5429 312.715 13.996 313.215 14.5741C313.707 15.1523 314.086 15.8359 314.352 16.6249C314.617 17.4062 314.75 18.2538 314.75 19.1679V19.4257C314.75 20.3398 314.617 21.1874 314.352 21.9687C314.086 22.7499 313.707 23.4296 313.215 24.0077C312.715 24.5859 312.11 25.039 311.399 25.3671C310.688 25.6952 309.887 25.8593 308.996 25.8593C308.098 25.8593 307.289 25.6952 306.571 25.3671C305.86 25.039 305.258 24.5859 304.766 24.0077C304.266 23.4296 303.883 22.7499 303.617 21.9687C303.352 21.1874 303.219 20.3398 303.219 19.4257V19.1679ZM305.387 19.4257C305.387 20.0507 305.461 20.6484 305.61 21.2187C305.758 21.7812 305.985 22.2773 306.289 22.707C306.586 23.1366 306.961 23.4765 307.414 23.7265C307.867 23.9765 308.395 24.1015 308.996 24.1015C309.59 24.1015 310.11 23.9765 310.555 23.7265C311.008 23.4765 311.387 23.1366 311.692 22.707C311.989 22.2773 312.211 21.7812 312.36 21.2187C312.508 20.6484 312.582 20.0507 312.582 19.4257V19.1679C312.582 18.5507 312.504 17.9609 312.348 17.3984C312.199 16.828 311.977 16.328 311.68 15.8984C311.375 15.4687 310.996 15.1288 310.543 14.8788C310.098 14.621 309.574 14.4921 308.973 14.4921C308.371 14.4921 307.848 14.621 307.403 14.8788C306.957 15.1288 306.586 15.4687 306.289 15.8984C305.985 16.328 305.758 16.828 305.61 17.3984C305.461 17.9609 305.387 18.5507 305.387 19.1679V19.4257ZM318.582 7.62492H325.063V23.7499H329.199V25.6249H318.582V23.7499H322.895V9.51164H318.582V7.62492ZM341.012 25.6249L340.883 23.8788C340.461 24.5038 339.934 24.9921 339.301 25.3437C338.668 25.6874 337.938 25.8593 337.11 25.8593C336.446 25.8593 335.844 25.7577 335.305 25.5546C334.766 25.3437 334.305 25.0195 333.922 24.582C333.539 24.1445 333.242 23.5898 333.031 22.9179C332.828 22.2382 332.727 21.4257 332.727 20.4804V12.9452H334.895V20.5038C334.895 21.1913 334.949 21.7616 335.059 22.2148C335.168 22.6679 335.332 23.0273 335.551 23.2929C335.77 23.5663 336.035 23.7577 336.348 23.8671C336.668 23.9765 337.035 24.0312 337.449 24.0312C337.934 24.0312 338.367 23.9765 338.75 23.8671C339.133 23.7499 339.465 23.5898 339.746 23.3866C339.981 23.2226 340.184 23.0273 340.356 22.8007C340.535 22.5663 340.684 22.3124 340.801 22.039V12.9452H342.981V25.6249H341.012ZM352.203 9.87492V12.9452H357.031V14.621H352.203V21.5116C352.203 22.0038 352.266 22.4101 352.391 22.7304C352.516 23.0507 352.688 23.3046 352.906 23.4921C353.125 23.6874 353.375 23.8241 353.656 23.9023C353.946 23.9804 354.25 24.0195 354.571 24.0195C354.805 24.0195 355.047 24.0077 355.297 23.9843C355.547 23.953 355.793 23.9179 356.035 23.8788C356.27 23.8398 356.489 23.8007 356.692 23.7616C356.903 23.7148 357.074 23.6757 357.207 23.6445L357.512 25.1796C357.332 25.289 357.114 25.3866 356.856 25.4726C356.598 25.5507 356.317 25.6171 356.012 25.6718C355.707 25.7343 355.383 25.7812 355.039 25.8124C354.703 25.8437 354.367 25.8593 354.031 25.8593C353.469 25.8593 352.942 25.7812 352.449 25.6249C351.965 25.4609 351.543 25.203 351.184 24.8515C350.824 24.5077 350.539 24.0624 350.328 23.5155C350.125 22.9609 350.024 22.2929 350.024 21.5116V14.621H346.696V12.9452H350.024V9.87492H352.203ZM361.824 12.9452H368.305V23.7499H372.442V25.6249H361.824V23.7499H366.137V14.832H361.824V12.9452ZM365.856 9.61711C365.856 9.42961 365.883 9.25383 365.938 9.08977C366 8.9257 366.094 8.78508 366.219 8.66789C366.321 8.56633 366.449 8.4882 366.606 8.43352C366.77 8.37102 366.953 8.33977 367.156 8.33977C367.36 8.33977 367.539 8.37102 367.696 8.43352C367.852 8.4882 367.981 8.56633 368.082 8.66789C368.207 8.77727 368.301 8.91399 368.364 9.07805C368.426 9.24211 368.457 9.4218 368.457 9.61711C368.457 9.96867 368.348 10.2616 368.129 10.496C367.91 10.7304 367.586 10.8476 367.156 10.8476C366.719 10.8476 366.391 10.7304 366.172 10.496C365.961 10.2616 365.856 9.96867 365.856 9.61711ZM375.289 19.1679C375.289 18.2538 375.422 17.4062 375.688 16.6249C375.953 15.8359 376.336 15.1523 376.836 14.5741C377.328 13.996 377.93 13.5429 378.641 13.2148C379.352 12.8788 380.153 12.7109 381.043 12.7109C381.942 12.7109 382.746 12.8788 383.457 13.2148C384.176 13.5429 384.785 13.996 385.285 14.5741C385.778 15.1523 386.156 15.8359 386.422 16.6249C386.688 17.4062 386.821 18.2538 386.821 19.1679V19.4257C386.821 20.3398 386.688 21.1874 386.422 21.9687C386.156 22.7499 385.778 23.4296 385.285 24.0077C384.785 24.5859 384.18 25.039 383.469 25.3671C382.758 25.6952 381.957 25.8593 381.067 25.8593C380.168 25.8593 379.36 25.6952 378.641 25.3671C377.93 25.039 377.328 24.5859 376.836 24.0077C376.336 23.4296 375.953 22.7499 375.688 21.9687C375.422 21.1874 375.289 20.3398 375.289 19.4257V19.1679ZM377.457 19.4257C377.457 20.0507 377.531 20.6484 377.68 21.2187C377.828 21.7812 378.055 22.2773 378.36 22.707C378.656 23.1366 379.031 23.4765 379.485 23.7265C379.938 23.9765 380.465 24.1015 381.067 24.1015C381.66 24.1015 382.18 23.9765 382.625 23.7265C383.078 23.4765 383.457 23.1366 383.762 22.707C384.059 22.2773 384.281 21.7812 384.43 21.2187C384.578 20.6484 384.653 20.0507 384.653 19.4257V19.1679C384.653 18.5507 384.574 17.9609 384.418 17.3984C384.27 16.828 384.047 16.328 383.75 15.8984C383.446 15.4687 383.067 15.1288 382.614 14.8788C382.168 14.621 381.645 14.4921 381.043 14.4921C380.442 14.4921 379.918 14.621 379.473 14.8788C379.028 15.1288 378.656 15.4687 378.36 15.8984C378.055 16.328 377.828 16.828 377.68 17.3984C377.531 17.9609 377.457 18.5507 377.457 19.1679V19.4257ZM390.313 25.6249V12.9452H392.258L392.41 14.8202C392.598 14.5546 392.801 14.3124 393.02 14.0937C393.246 13.8671 393.485 13.6718 393.735 13.5077C394.11 13.2577 394.516 13.0663 394.953 12.9335C395.399 12.7929 395.867 12.7187 396.36 12.7109C397.024 12.7109 397.625 12.8046 398.164 12.9921C398.711 13.1796 399.176 13.4726 399.559 13.871C399.942 14.2695 400.235 14.7773 400.438 15.3945C400.649 16.0038 400.754 16.7304 400.754 17.5741V25.6249H398.586V17.621C398.586 17.0585 398.524 16.582 398.399 16.1913C398.274 15.8007 398.09 15.4843 397.848 15.2421C397.598 14.9999 397.293 14.8241 396.934 14.7148C396.582 14.6054 396.176 14.5507 395.715 14.5507C395.317 14.5507 394.946 14.6093 394.602 14.7265C394.258 14.8359 393.942 14.9882 393.653 15.1835C393.418 15.3554 393.199 15.5546 392.996 15.7812C392.801 16.0077 392.629 16.2577 392.481 16.5312V25.6249H390.313ZM413.153 22.2616C413.153 22.0038 413.102 21.7734 413 21.5702C412.899 21.3593 412.727 21.1679 412.485 20.996C412.242 20.8241 411.922 20.6679 411.524 20.5273C411.125 20.3788 410.629 20.246 410.035 20.1288C409.309 19.9804 408.645 19.8007 408.043 19.5898C407.449 19.3788 406.942 19.1249 406.52 18.828C406.09 18.539 405.758 18.1991 405.524 17.8085C405.289 17.4101 405.172 16.9491 405.172 16.4257C405.172 15.9101 405.293 15.4296 405.535 14.9843C405.778 14.5312 406.117 14.1366 406.555 13.8007C406.992 13.4648 407.512 13.1991 408.114 13.0038C408.723 12.8085 409.391 12.7109 410.117 12.7109C410.899 12.7109 411.602 12.8124 412.227 13.0155C412.852 13.2187 413.383 13.4999 413.821 13.8593C414.258 14.2187 414.594 14.6405 414.828 15.1249C415.071 15.6015 415.192 16.1171 415.192 16.6718H413.024C413.024 16.3984 412.953 16.1327 412.813 15.8749C412.672 15.6093 412.477 15.3749 412.227 15.1718C411.977 14.9687 411.672 14.8046 411.313 14.6796C410.961 14.5546 410.563 14.4921 410.117 14.4921C409.656 14.4921 409.25 14.5429 408.899 14.6445C408.555 14.746 408.27 14.8827 408.043 15.0546C407.809 15.2265 407.633 15.4257 407.516 15.6523C407.399 15.8788 407.34 16.1132 407.34 16.3554C407.34 16.6054 407.387 16.828 407.481 17.0234C407.574 17.2187 407.739 17.3945 407.973 17.5507C408.199 17.707 408.504 17.8476 408.887 17.9726C409.278 18.0976 409.77 18.2187 410.364 18.3359C411.145 18.4999 411.844 18.6913 412.461 18.9101C413.078 19.121 413.598 19.3749 414.02 19.6718C414.442 19.9765 414.762 20.328 414.981 20.7265C415.207 21.1249 415.321 21.5859 415.321 22.1093C415.321 22.6718 415.192 23.1835 414.934 23.6445C414.684 24.1054 414.332 24.4999 413.879 24.828C413.426 25.1562 412.883 25.4101 412.25 25.5898C411.617 25.7695 410.926 25.8593 410.176 25.8593C409.317 25.8593 408.551 25.746 407.879 25.5195C407.207 25.2851 406.641 24.9765 406.18 24.5937C405.711 24.2187 405.352 23.7812 405.102 23.2812C404.86 22.7812 404.739 22.2616 404.739 21.7226H406.906C406.938 22.1679 407.055 22.5429 407.258 22.8476C407.469 23.1523 407.731 23.3984 408.043 23.5859C408.348 23.7734 408.688 23.9062 409.063 23.9843C409.438 24.0624 409.809 24.1015 410.176 24.1015C410.754 24.1015 411.258 24.0351 411.688 23.9023C412.117 23.7616 412.453 23.5702 412.696 23.328C412.844 23.1796 412.957 23.0155 413.035 22.8359C413.114 22.6562 413.153 22.4648 413.153 22.2616Z" fill="black"/>
</svg>
