<svg width="33" height="41" viewBox="0 0 33 41" fill="none" xmlns="http://www.w3.org/2000/svg">
<mask id="mask0_2804_824" style="mask-type:alpha" maskUnits="userSpaceOnUse" x="0" y="4" width="33" height="33">
<rect y="4" width="32.7502" height="32.7502" fill="#D9D9D9"/>
</mask>
<g mask="url(#mask0_2804_824)">
<path d="M16.3751 27.1973C18.2628 27.1973 19.8719 26.5321 21.2024 25.2016C22.5329 23.8711 23.1981 22.262 23.1981 20.3744C23.1981 18.4867 22.5329 16.8776 21.2024 15.5471C19.8719 14.2166 18.2628 13.5514 16.3751 13.5514C14.4875 13.5514 12.8784 14.2166 11.5479 15.5471C10.2174 16.8776 9.5522 18.4867 9.5522 20.3744C9.5522 22.262 10.2174 23.8711 11.5479 25.2016C12.8784 26.5321 14.4875 27.1973 16.3751 27.1973ZM16.3751 34.0203C14.4875 34.0203 12.7135 33.662 11.0532 32.9456C9.393 32.2292 7.9488 31.257 6.72067 30.0288C5.49254 28.8007 4.52027 27.3565 3.80386 25.6963C3.08745 24.036 2.72925 22.262 2.72925 20.3744C2.72925 18.4867 3.08745 16.7127 3.80386 15.0525C4.52027 13.3922 5.49254 11.948 6.72067 10.7199C7.9488 9.49175 9.393 8.51948 11.0532 7.80307C12.7135 7.08666 14.4875 6.72845 16.3751 6.72845C18.2628 6.72845 20.0368 7.08666 21.697 7.80307C23.3573 8.51948 24.8015 9.49175 26.0296 10.7199C27.2578 11.948 28.23 13.3922 28.9464 15.0525C29.6628 16.7127 30.021 18.4867 30.021 20.3744C30.021 22.262 29.6628 24.036 28.9464 25.6963C28.23 27.3565 27.2578 28.8007 26.0296 30.0288C24.8015 31.257 23.3573 32.2292 21.697 32.9456C20.0368 33.662 18.2628 34.0203 16.3751 34.0203ZM16.3751 31.2911C19.4227 31.2911 22.0041 30.2335 24.1192 28.1184C26.2343 26.0033 27.2919 23.4219 27.2919 20.3744C27.2919 17.3268 26.2343 14.7454 24.1192 12.6303C22.0041 10.5152 19.4227 9.45763 16.3751 9.45763C13.3276 9.45763 10.7462 10.5152 8.6311 12.6303C6.51599 14.7454 5.45843 17.3268 5.45843 20.3744C5.45843 23.4219 6.51599 26.0033 8.6311 28.1184C10.7462 30.2335 13.3276 31.2911 16.3751 31.2911Z" fill="#1C1B1F"/>
</g>
<circle cx="16.5911" cy="20.5924" r="7.18948" fill="#FF5733"/>
</svg>
